<svg width="24" height="25" viewBox="0 0 24 25" fill="none" xmlns="http://www.w3.org/2000/svg">
<rect x="8.14575" y="4.53186" width="8.00731" height="15.0796" rx="1.5" stroke="#4574EC"/>
<path fill-rule="evenodd" clip-rule="evenodd" d="M17.3345 18.5706H18.975C20.0795 18.5706 20.975 17.6751 20.975 16.5706V7.57275C20.975 6.46818 20.0795 5.57275 18.975 5.57275H17.3345V6.57275H18.975C19.5273 6.57275 19.975 7.02047 19.975 7.57275V16.5706C19.975 17.1228 19.5273 17.5706 18.975 17.5706H17.3345V18.5706Z" fill="#7FA3FF"/>
<path fill-rule="evenodd" clip-rule="evenodd" d="M6.72644 5.57275L5.08595 5.57275C3.98138 5.57275 3.08595 6.46818 3.08595 7.57275L3.08595 16.5706C3.08595 17.6751 3.98138 18.5706 5.08595 18.5706L6.72644 18.5706L6.72644 17.5706L5.08595 17.5706C4.53366 17.5706 4.08595 17.1228 4.08595 16.5706L4.08595 7.57275C4.08595 7.02047 4.53366 6.57275 5.08595 6.57275L6.72644 6.57275L6.72644 5.57275Z" fill="#7FA3FF"/>
</svg>
