<svg width="24" height="25" viewBox="0 0 24 25" fill="none" xmlns="http://www.w3.org/2000/svg">
<path d="M16.1701 14.5582H7.93101C7.25761 14.5582 6.92091 14.5582 6.62792 14.6504C6.21957 14.7788 5.8632 15.0349 5.61123 15.381C5.43044 15.6293 5.32306 15.9484 5.10831 16.5867C4.71855 17.745 4.52367 18.3242 4.58904 18.7916C4.68023 19.4438 5.08657 20.0092 5.67556 20.3036C6.09776 20.5146 6.70885 20.5146 7.93101 20.5146H16.1701C17.3716 20.5146 17.9723 20.5146 18.3912 20.3076C18.9755 20.0189 19.3825 19.4635 19.4817 18.8193C19.5529 18.3575 19.3719 17.7847 19.0099 16.6391L19.0099 16.639C18.8033 15.9852 18.6999 15.6583 18.52 15.4037C18.2691 15.0489 17.9095 14.7854 17.4956 14.6531C17.1986 14.5582 16.8558 14.5582 16.1701 14.5582Z" stroke="#4574EC"/>
<circle cx="11.9999" cy="9.15216" r="3.80658" stroke="#4574EC"/>
</svg>
